<svg width="197" height="60" viewBox="0 0 197 60" fill="none" xmlns="http://www.w3.org/2000/svg">
<rect width="197" height="60" fill="white"/>
<path d="M1.23295 11V0.818182H4.79261C5.50189 0.818182 6.08688 0.940814 6.54759 1.18608C7.00829 1.42803 7.35133 1.7545 7.5767 2.16548C7.80208 2.57315 7.91477 3.02557 7.91477 3.52273C7.91477 3.96023 7.83688 4.3215 7.68111 4.60653C7.52865 4.89157 7.32647 5.11695 7.07457 5.28267C6.82599 5.44839 6.55587 5.57102 6.2642 5.65057V5.75C6.57576 5.76989 6.88897 5.87926 7.20384 6.07812C7.5187 6.27699 7.7822 6.56203 7.99432 6.93324C8.20644 7.30445 8.3125 7.75852 8.3125 8.29545C8.3125 8.80587 8.1965 9.26491 7.96449 9.67259C7.73248 10.0803 7.36624 10.4034 6.86577 10.642C6.36529 10.8807 5.71402 11 4.91193 11H1.23295ZM2.46591 9.90625H4.91193C5.71733 9.90625 6.28906 9.75047 6.62713 9.43892C6.96851 9.12405 7.1392 8.7429 7.1392 8.29545C7.1392 7.95076 7.05137 7.63258 6.87571 7.34091C6.70005 7.04593 6.44981 6.81061 6.125 6.63494C5.80019 6.45597 5.41572 6.36648 4.97159 6.36648H2.46591V9.90625ZM2.46591 5.29261H4.75284C5.12405 5.29261 5.45881 5.2197 5.7571 5.07386C6.05871 4.92803 6.29735 4.72254 6.47301 4.45739C6.65199 4.19223 6.74148 3.88068 6.74148 3.52273C6.74148 3.07528 6.5857 2.69579 6.27415 2.38423C5.9626 2.06937 5.46875 1.91193 4.79261 1.91193H2.46591V5.29261ZM11.2484 11V0.818182H17.3933V1.91193H12.4814V5.35227H17.0751V6.44602H12.4814V9.90625H17.4729V11H11.2484ZM19.9688 1.91193V0.818182H27.6052V1.91193H24.4035V11H23.1705V1.91193H19.9688ZM29.6462 11H28.3536L32.0922 0.818182H33.3649L37.1036 11H35.811L32.7684 2.42898H32.6888L29.6462 11ZM30.1235 7.02273H35.3337V8.11648H30.1235V7.02273Z" fill="#E9E9E9"/>
<path d="M106.233 11V0.818182H109.793C110.502 0.818182 111.087 0.940814 111.548 1.18608C112.008 1.42803 112.351 1.7545 112.577 2.16548C112.802 2.57315 112.915 3.02557 112.915 3.52273C112.915 3.96023 112.837 4.3215 112.681 4.60653C112.529 4.89157 112.326 5.11695 112.075 5.28267C111.826 5.44839 111.556 5.57102 111.264 5.65057V5.75C111.576 5.76989 111.889 5.87926 112.204 6.07812C112.519 6.27699 112.782 6.56203 112.994 6.93324C113.206 7.30445 113.312 7.75852 113.312 8.29545C113.312 8.80587 113.196 9.26491 112.964 9.67259C112.732 10.0803 112.366 10.4034 111.866 10.642C111.365 10.8807 110.714 11 109.912 11H106.233ZM107.466 9.90625H109.912C110.717 9.90625 111.289 9.75047 111.627 9.43892C111.969 9.12405 112.139 8.7429 112.139 8.29545C112.139 7.95076 112.051 7.63258 111.876 7.34091C111.7 7.04593 111.45 6.81061 111.125 6.63494C110.8 6.45597 110.416 6.36648 109.972 6.36648H107.466V9.90625ZM107.466 5.29261H109.753C110.124 5.29261 110.459 5.2197 110.757 5.07386C111.059 4.92803 111.297 4.72254 111.473 4.45739C111.652 4.19223 111.741 3.88068 111.741 3.52273C111.741 3.07528 111.586 2.69579 111.274 2.38423C110.963 2.06937 110.469 1.91193 109.793 1.91193H107.466V5.29261ZM116.248 11V0.818182H122.393V1.91193H117.481V5.35227H122.075V6.44602H117.481V9.90625H122.473V11H116.248ZM124.969 1.91193V0.818182H132.605V1.91193H129.403V11H128.17V1.91193H124.969ZM134.646 11H133.354L137.092 0.818182H138.365L142.104 11H140.811L137.768 2.42898H137.689L134.646 11ZM135.123 7.02273H140.334V8.11648H135.123V7.02273Z" fill="#E9E9E9"/>
<path d="M53.233 41V30.8182H56.7926C57.5019 30.8182 58.0869 30.9408 58.5476 31.1861C59.0083 31.428 59.3513 31.7545 59.5767 32.1655C59.8021 32.5732 59.9148 33.0256 59.9148 33.5227C59.9148 33.9602 59.8369 34.3215 59.6811 34.6065C59.5286 34.8916 59.3265 35.117 59.0746 35.2827C58.826 35.4484 58.5559 35.571 58.2642 35.6506V35.75C58.5758 35.7699 58.889 35.8793 59.2038 36.0781C59.5187 36.277 59.7822 36.562 59.9943 36.9332C60.2064 37.3045 60.3125 37.7585 60.3125 38.2955C60.3125 38.8059 60.1965 39.2649 59.9645 39.6726C59.7325 40.0803 59.3662 40.4034 58.8658 40.642C58.3653 40.8807 57.714 41 56.9119 41H53.233ZM54.4659 39.9062H56.9119C57.7173 39.9062 58.2891 39.7505 58.6271 39.4389C58.9685 39.1241 59.1392 38.7429 59.1392 38.2955C59.1392 37.9508 59.0514 37.6326 58.8757 37.3409C58.7 37.0459 58.4498 36.8106 58.125 36.6349C57.8002 36.456 57.4157 36.3665 56.9716 36.3665H54.4659V39.9062ZM54.4659 35.2926H56.7528C57.1241 35.2926 57.4588 35.2197 57.7571 35.0739C58.0587 34.928 58.2973 34.7225 58.473 34.4574C58.652 34.1922 58.7415 33.8807 58.7415 33.5227C58.7415 33.0753 58.5857 32.6958 58.2741 32.3842C57.9626 32.0694 57.4688 31.9119 56.7926 31.9119H54.4659V35.2926ZM63.2484 41V30.8182H69.3933V31.9119H64.4814V35.3523H69.0751V36.446H64.4814V39.9062H69.4729V41H63.2484ZM71.9688 31.9119V30.8182H79.6052V31.9119H76.4035V41H75.1705V31.9119H71.9688ZM81.6462 41H80.3536L84.0922 30.8182H85.3649L89.1036 41H87.811L84.7684 32.429H84.6888L81.6462 41ZM82.1235 37.0227H87.3337V38.1165H82.1235V37.0227Z" fill="#E9E9E9"/>
<path d="M158.233 41V30.8182H161.793C162.502 30.8182 163.087 30.9408 163.548 31.1861C164.008 31.428 164.351 31.7545 164.577 32.1655C164.802 32.5732 164.915 33.0256 164.915 33.5227C164.915 33.9602 164.837 34.3215 164.681 34.6065C164.529 34.8916 164.326 35.117 164.075 35.2827C163.826 35.4484 163.556 35.571 163.264 35.6506V35.75C163.576 35.7699 163.889 35.8793 164.204 36.0781C164.519 36.277 164.782 36.562 164.994 36.9332C165.206 37.3045 165.312 37.7585 165.312 38.2955C165.312 38.8059 165.196 39.2649 164.964 39.6726C164.732 40.0803 164.366 40.4034 163.866 40.642C163.365 40.8807 162.714 41 161.912 41H158.233ZM159.466 39.9062H161.912C162.717 39.9062 163.289 39.7505 163.627 39.4389C163.969 39.1241 164.139 38.7429 164.139 38.2955C164.139 37.9508 164.051 37.6326 163.876 37.3409C163.7 37.0459 163.45 36.8106 163.125 36.6349C162.8 36.456 162.416 36.3665 161.972 36.3665H159.466V39.9062ZM159.466 35.2926H161.753C162.124 35.2926 162.459 35.2197 162.757 35.0739C163.059 34.928 163.297 34.7225 163.473 34.4574C163.652 34.1922 163.741 33.8807 163.741 33.5227C163.741 33.0753 163.586 32.6958 163.274 32.3842C162.963 32.0694 162.469 31.9119 161.793 31.9119H159.466V35.2926ZM168.248 41V30.8182H174.393V31.9119H169.481V35.3523H174.075V36.446H169.481V39.9062H174.473V41H168.248ZM176.969 31.9119V30.8182H184.605V31.9119H181.403V41H180.17V31.9119H176.969ZM186.646 41H185.354L189.092 30.8182H190.365L194.104 41H192.811L189.768 32.429H189.689L186.646 41ZM187.123 37.0227H192.334V38.1165H187.123V37.0227Z" fill="#E9E9E9"/>
</svg>
